<svg width="24" height="24" viewBox="0 0 24 24" fill="none" xmlns="http://www.w3.org/2000/svg">
<path d="M11.7813 5.04916C10.9491 5.04916 10.1356 5.29593 9.44371 5.75827C8.75177 6.2206 8.21248 6.87774 7.89402 7.64657C7.57555 8.41541 7.49223 9.26141 7.65458 10.0776C7.81693 10.8938 8.21766 11.6435 8.8061 12.2319C9.39454 12.8204 10.1443 13.2211 10.9605 13.3835C11.7766 13.5458 12.6226 13.4625 13.3915 13.144C14.1603 12.8256 14.8175 12.2863 15.2798 11.5943C15.7421 10.9024 15.9889 10.0889 15.9889 9.25674C15.9889 8.14082 15.5456 7.07061 14.7565 6.28154C13.9674 5.49246 12.8972 5.04916 11.7813 5.04916ZM11.7813 11.7813C11.282 11.7813 10.7939 11.6332 10.3787 11.3558C9.96359 11.0784 9.64001 10.6841 9.44893 10.2228C9.25786 9.76154 9.20786 9.25394 9.30527 8.76423C9.40268 8.27451 9.64312 7.82468 9.99619 7.47162C10.3493 7.11855 10.7991 6.87811 11.2888 6.7807C11.7785 6.68329 12.2861 6.73329 12.7474 6.92436C13.2087 7.11544 13.603 7.43902 13.8804 7.85418C14.1578 8.26934 14.3059 8.75743 14.3059 9.25674C14.3051 9.92606 14.0389 10.5677 13.5656 11.041C13.0923 11.5143 12.4506 11.7805 11.7813 11.7813Z" fill="white"/>
<path d="M11.7812 0C9.45112 0 7.17334 0.690957 5.23593 1.98549C3.29852 3.28003 1.78849 5.12001 0.896797 7.27274C0.0051046 9.42548 -0.228203 11.7943 0.226378 14.0796C0.680959 16.365 1.80301 18.4642 3.45064 20.1118C5.09828 21.7594 7.19749 22.8815 9.48282 23.3361C11.7682 23.7906 14.137 23.5573 16.2897 22.6656C18.4424 21.774 20.2824 20.2639 21.577 18.3265C22.8715 16.3891 23.5624 14.1113 23.5624 11.7812C23.5589 8.65773 22.3166 5.66317 20.1079 3.45453C17.8993 1.24588 14.9047 0.00351913 11.7812 0ZM6.73213 20.5132V19.3549C6.73287 18.6855 6.99908 18.0438 7.47237 17.5705C7.94565 17.0973 8.58735 16.831 9.25668 16.8303H14.3058C14.9751 16.831 15.6168 17.0973 16.0901 17.5705C16.5634 18.0438 16.8296 18.6855 16.8303 19.3549V20.5132C15.2981 21.4079 13.5556 21.8794 11.7812 21.8794C10.0069 21.8794 8.26439 21.4079 6.73213 20.5132ZM18.507 19.2924C18.4903 18.1886 18.0405 17.1355 17.2547 16.3601C16.4688 15.5847 15.4098 15.1492 14.3058 15.1473H9.25668C8.15269 15.1492 7.09364 15.5847 6.30777 16.3601C5.52191 17.1355 5.07214 18.1886 5.05541 19.2924C3.52938 17.9298 2.45322 16.1358 1.96943 14.148C1.48565 12.1601 1.61706 10.0722 2.34627 8.16073C3.07547 6.24924 4.36808 4.60433 6.05292 3.44379C7.73776 2.28326 9.73537 1.66185 11.7812 1.66185C13.8271 1.66185 15.8247 2.28326 17.5095 3.44379C19.1944 4.60433 20.487 6.24924 21.2162 8.16073C21.9454 10.0722 22.0768 12.1601 21.593 14.148C21.1092 16.1358 20.0331 17.9298 18.507 19.2924Z" fill="white"/>
</svg>
