<svg width="135" height="25" viewBox="0 0 135 25" fill="none" xmlns="http://www.w3.org/2000/svg">
<path d="M4.464 2.024L4.272 8.624C4.272 12.784 5.152 14.864 6.912 14.864C7.44 14.864 7.888 14.76 8.256 14.552C8.624 14.328 8.96 13.928 9.264 13.352C9.888 12.232 10.2 10.072 10.2 6.872C10.2 3.656 10.112 1.512 9.936 0.439999C10.112 0.359999 10.336 0.319999 10.608 0.319999C11.808 0.319999 12.608 0.527999 13.008 0.943999C13.152 1.664 13.224 3.944 13.224 7.784C13.224 11.704 12.576 14.392 11.28 15.848C10.64 16.568 9.944 17.072 9.192 17.36C8.456 17.648 7.6 17.792 6.624 17.792C4.72 17.792 3.336 17.072 2.472 15.632C1.608 14.176 1.176 11.672 1.176 8.12C1.176 6.776 1.192 5.728 1.224 4.976C1.272 4.224 1.288 3.84 1.272 3.824C1.176 3.648 1.056 3.344 0.912 2.912C0.784 2.48 0.72 2.168 0.72 1.976C0.72 1.912 0.872 1.816 1.176 1.688C1.96 1.384 2.688 1.232 3.36 1.232C4.032 1.232 4.384 1.248 4.416 1.28C4.448 1.312 4.464 1.56 4.464 2.024ZM18.2837 11.6L18.3077 12.488V14.312C18.3077 16.024 18.2757 16.912 18.2117 16.976C18.0037 17.184 17.6437 17.344 17.1317 17.456C16.6197 17.568 16.1957 17.624 15.8597 17.624C15.5397 17.624 15.3797 17.6 15.3797 17.552C15.4917 16.832 15.5477 15.648 15.5477 14L15.4757 8.6C15.4757 7.608 15.5157 7.072 15.5957 6.992C15.7717 6.816 16.0757 6.664 16.5077 6.536C16.9397 6.392 17.3397 6.32 17.7077 6.32C18.0917 6.32 18.2837 6.36 18.2837 6.44C18.2357 6.824 18.2117 7.208 18.2117 7.592C18.2117 7.976 18.2357 8.168 18.2837 8.168L18.3557 8.12C18.4357 8.008 18.5557 7.872 18.7157 7.712C18.8757 7.536 19.2117 7.312 19.7237 7.04C20.2517 6.752 20.7477 6.608 21.2117 6.608C21.6917 6.608 22.0917 6.696 22.4117 6.872C22.7477 7.032 23.0197 7.232 23.2277 7.472C23.4357 7.712 23.6117 8.056 23.7557 8.504C23.9157 8.952 24.0357 9.368 24.1157 9.752C24.1957 10.136 24.2597 10.648 24.3077 11.288C24.3557 12.168 24.3797 13.288 24.3797 14.648L24.3077 17.456C24.3077 17.568 24.0437 17.672 23.5157 17.768C22.9877 17.88 22.5637 17.936 22.2437 17.936L21.4517 17.816C21.6117 16.376 21.6917 14.984 21.6917 13.64C21.6917 12.28 21.6037 11.264 21.4277 10.592C21.2517 9.904 20.8997 9.56 20.3717 9.56C19.8437 9.56 19.4117 9.704 19.0757 9.992C18.7557 10.28 18.5477 10.568 18.4517 10.856L18.2837 11.264V11.6ZM28.2399 2.672C28.6879 2.672 29.0479 2.816 29.3199 3.104C29.5919 3.392 29.7279 3.768 29.7279 4.232C29.7279 4.696 29.5439 5.096 29.1759 5.432C28.8239 5.752 28.4239 5.912 27.9759 5.912C27.5439 5.912 27.1919 5.776 26.9199 5.504C26.6639 5.216 26.5359 4.84 26.5359 4.376C26.5359 3.912 26.7119 3.512 27.0639 3.176C27.4159 2.84 27.8079 2.672 28.2399 2.672ZM29.4639 8.648L29.4159 12.536C29.4159 13.784 29.4479 14.704 29.5119 15.296C29.5919 15.872 29.7999 16.416 30.1359 16.928C30.1359 17.088 29.8079 17.344 29.1519 17.696C28.4959 18.048 27.9359 18.224 27.4719 18.224C27.3279 18.224 27.1839 17.984 27.0399 17.504C26.8959 17.024 26.7999 16.568 26.7519 16.136C26.7199 15.704 26.7039 14.248 26.7039 11.768C26.7039 9.288 26.7599 7.936 26.8719 7.712C27.2399 7.424 27.8879 7.28 28.8159 7.28C29.1839 7.28 29.4079 7.328 29.4879 7.424L29.4639 8.648ZM35.0014 17.528C34.5534 17.528 34.1854 17.48 33.8974 17.384C33.8974 17.048 33.3854 15.36 32.3614 12.32C31.3534 9.264 30.8494 7.416 30.8494 6.776C30.8494 6.744 30.9294 6.68 31.0894 6.584C31.2654 6.472 31.5614 6.36 31.9774 6.248C32.3934 6.136 32.8654 6.08 33.3934 6.08C34.3694 10.048 35.1054 12.584 35.6014 13.688C35.6174 13.768 35.6494 13.768 35.6974 13.688C35.9854 13.176 36.4254 11.824 37.0174 9.632C37.6094 7.424 37.9374 5.984 38.0014 5.312C38.0174 5.216 38.1934 5.136 38.5294 5.072C38.8654 4.992 39.3054 4.952 39.8494 4.952C40.3934 4.952 40.7614 5.032 40.9534 5.192C40.9534 5.656 40.3854 7.728 39.2494 11.408C38.1134 15.072 37.4814 16.968 37.3534 17.096C37.1294 17.32 36.5134 17.456 35.5054 17.504L35.0014 17.528ZM47.9471 9.368C47.9471 8.904 47.6991 8.672 47.2031 8.672C46.5471 8.672 45.9711 9.008 45.4751 9.68C44.9791 10.352 44.7311 11.16 44.7311 12.104C44.7311 12.328 44.7631 12.44 44.8271 12.44C45.4031 12.424 46.0671 12.096 46.8191 11.456C47.5711 10.8 47.9471 10.104 47.9471 9.368ZM50.0351 17C49.4911 17.368 48.4271 17.552 46.8431 17.552C45.2591 17.552 44.0431 17.08 43.1951 16.136C42.3471 15.192 41.9231 13.936 41.9231 12.368C41.9231 10.784 42.4271 9.416 43.4351 8.264C44.4591 7.096 45.8911 6.512 47.7311 6.512C48.4831 6.512 49.1711 6.712 49.7951 7.112C50.4351 7.512 50.7551 8.216 50.7551 9.224C50.7551 10.216 50.3151 11.2 49.4351 12.176C48.5711 13.152 47.3871 13.896 45.8831 14.408C45.8831 14.6 46.0751 14.76 46.4591 14.888C46.8591 15 47.2511 15.056 47.6351 15.056C48.8511 15.056 49.8111 14.84 50.5151 14.408C50.5311 14.392 50.5551 14.384 50.5871 14.384C50.6191 14.384 50.6351 14.536 50.6351 14.84C50.6351 15.768 50.4351 16.488 50.0351 17ZM52.5996 13.76L52.5516 8.312C52.5516 7.368 52.5836 6.864 52.6476 6.8C52.8236 6.624 53.1276 6.472 53.5596 6.344C53.9916 6.2 54.3916 6.128 54.7596 6.128C55.1436 6.128 55.3356 6.168 55.3356 6.248C55.2876 6.68 55.2636 7.176 55.2636 7.736C55.2636 8.28 55.2796 8.552 55.3116 8.552C55.3436 8.552 55.3756 8.536 55.4076 8.504C55.4396 8.456 55.4876 8.392 55.5516 8.312C55.6316 8.216 55.7836 8.056 56.0076 7.832C56.2476 7.608 56.5036 7.416 56.7756 7.256C57.4636 6.808 58.1996 6.584 58.9836 6.584C59.1116 6.792 59.1756 7.112 59.1756 7.544C59.1756 8.456 59.0636 9.104 58.8396 9.488L58.7436 9.68L58.4316 9.632C57.2796 9.632 56.3756 10.104 55.7196 11.048C55.4636 11.432 55.3356 11.72 55.3356 11.912V14.024C55.3356 15.944 55.3116 16.928 55.2636 16.976C54.8156 17.408 53.9356 17.624 52.6236 17.624C52.4956 17.624 52.4316 17.6 52.4316 17.552C52.5436 16.928 52.5996 15.664 52.5996 13.76ZM67.1237 14.24C67.1237 15.104 66.7157 15.88 65.8997 16.568C65.0997 17.24 64.2277 17.72 63.2837 18.008C62.3557 18.312 61.5397 18.464 60.8357 18.464C60.7557 18.464 60.6437 18.368 60.4997 18.176C60.0997 17.648 59.8997 17.032 59.8997 16.328V16.16C61.1477 16.16 62.0997 15.944 62.7557 15.512C63.4117 15.08 63.7397 14.632 63.7397 14.168C63.7397 13.864 63.5397 13.544 63.1397 13.208C62.7397 12.872 62.2997 12.576 61.8197 12.32C61.3397 12.064 60.8997 11.728 60.4997 11.312C60.0997 10.88 59.8997 10.432 59.8997 9.968C59.8997 8.992 60.5077 8.096 61.7237 7.28C62.9397 6.464 64.2357 6.056 65.6117 6.056C65.7717 6.056 65.9797 6.28 66.2357 6.728C66.4917 7.16 66.6277 7.608 66.6437 8.072C66.3237 8.072 65.8437 8.168 65.2037 8.36C63.9397 8.76 63.3077 9.256 63.3077 9.848C63.3077 10.264 63.9317 10.832 65.1797 11.552C65.6597 11.824 66.0997 12.2 66.4997 12.68C66.8997 13.16 67.1077 13.68 67.1237 14.24ZM70.6384 2.672C71.0864 2.672 71.4464 2.816 71.7184 3.104C71.9904 3.392 72.1264 3.768 72.1264 4.232C72.1264 4.696 71.9424 5.096 71.5744 5.432C71.2224 5.752 70.8224 5.912 70.3744 5.912C69.9424 5.912 69.5904 5.776 69.3184 5.504C69.0624 5.216 68.9344 4.84 68.9344 4.376C68.9344 3.912 69.1104 3.512 69.4624 3.176C69.8144 2.84 70.2064 2.672 70.6384 2.672ZM71.8624 8.648L71.8144 12.536C71.8144 13.784 71.8464 14.704 71.9104 15.296C71.9904 15.872 72.1984 16.416 72.5344 16.928C72.5344 17.088 72.2064 17.344 71.5504 17.696C70.8944 18.048 70.3344 18.224 69.8704 18.224C69.7264 18.224 69.5824 17.984 69.4384 17.504C69.2944 17.024 69.1984 16.568 69.1504 16.136C69.1184 15.704 69.1024 14.248 69.1024 11.768C69.1024 9.288 69.1584 7.936 69.2704 7.712C69.6384 7.424 70.2864 7.28 71.2144 7.28C71.5824 7.28 71.8064 7.328 71.8864 7.424L71.8624 8.648ZM77.2558 1.28C77.2238 1.648 77.1838 2.656 77.1358 4.304C78.3358 4.304 78.9358 4.328 78.9358 4.376C78.9358 4.92 78.8558 5.408 78.6958 5.84C78.5358 6.256 78.3838 6.464 78.2398 6.464H77.1118C77.0798 8.832 77.0638 10.76 77.0638 12.248C77.0638 13.72 77.0878 14.704 77.1358 15.2C77.2318 16.032 77.5598 16.712 78.1198 17.24C78.1198 17.416 77.8078 17.672 77.1838 18.008C76.5758 18.344 75.9998 18.512 75.4558 18.512C75.4078 18.512 75.3118 18.432 75.1678 18.272C75.0398 18.112 74.8958 17.848 74.7358 17.48C74.5918 17.112 74.4958 16.752 74.4478 16.4C74.4158 16.048 74.3998 14.792 74.3998 12.632C74.3998 10.472 74.4238 8.432 74.4718 6.512L73.1278 6.536C73.0478 6.456 73.0078 6.112 73.0078 5.504C73.0078 4.88 73.0798 4.504 73.2238 4.376C73.5758 4.36 73.9998 4.344 74.4958 4.328C74.4958 3.4 74.4718 2.8 74.4238 2.528C74.3758 2.256 74.3518 2.096 74.3518 2.048C74.3518 1.888 74.6238 1.704 75.1678 1.496C75.7278 1.288 76.2158 1.184 76.6318 1.184C77.0478 1.184 77.2558 1.216 77.2558 1.28ZM88.4019 10.304L88.4259 16.688C88.4259 17.936 88.2579 19.048 87.9219 20.024C87.6019 21 87.2019 21.752 86.7219 22.28C86.2579 22.808 85.7219 23.24 85.1139 23.576C84.1219 24.136 83.1139 24.416 82.0899 24.416C82.0419 24.416 81.9459 24.296 81.8019 24.056C81.6579 23.816 81.5219 23.488 81.3939 23.072C81.2659 22.672 81.2019 22.296 81.2019 21.944C81.8099 21.944 82.4179 21.824 83.0259 21.584C83.6339 21.36 84.0579 21.112 84.2979 20.84C84.5379 20.584 84.7779 20.256 85.0179 19.856C85.5139 19.072 85.7619 17.8 85.7619 16.04L85.7379 15.344C85.7379 15.248 85.7219 15.2 85.6899 15.2C85.6579 15.2 85.6259 15.224 85.5939 15.272C85.5619 15.32 85.5219 15.384 85.4739 15.464C85.4259 15.528 85.3059 15.656 85.1139 15.848C84.9379 16.024 84.7459 16.184 84.5379 16.328C83.9779 16.712 83.4099 16.904 82.8339 16.904C82.2739 16.904 81.8259 16.832 81.4899 16.688C81.1699 16.544 80.8979 16.36 80.6739 16.136C80.4659 15.912 80.2899 15.6 80.1459 15.2C80.0019 14.784 79.8899 14.4 79.8099 14.048C79.7299 13.696 79.6739 13.216 79.6419 12.608C79.5779 11.76 79.5459 10.88 79.5459 9.968C79.5459 8.704 79.6099 7.672 79.7379 6.872L79.8099 6.536C79.8099 6.424 80.0499 6.312 80.5299 6.2C81.0259 6.088 81.4339 6.032 81.7539 6.032L82.5219 6.152C82.3459 7.736 82.2579 9.072 82.2579 10.16C82.2579 11.248 82.3699 12.152 82.5939 12.872C82.8179 13.592 83.1939 13.952 83.7219 13.952C84.2499 13.952 84.6659 13.8 84.9699 13.496C85.2899 13.176 85.4899 12.864 85.5699 12.56L85.6899 12.104C85.6579 11.096 85.6419 10.016 85.6419 8.864C85.6419 7.696 85.6819 7.072 85.7619 6.992C85.9699 6.784 86.3299 6.624 86.8419 6.512C87.3699 6.4 87.7939 6.344 88.1139 6.344C88.4339 6.344 88.5939 6.368 88.5939 6.416C88.4659 7.168 88.4019 8.464 88.4019 10.304ZM103.599 11.624C103.375 11.608 102.687 11.6 101.535 11.6C100.383 11.6 99.7114 11.632 99.5194 11.696C98.6714 14.48 98.1914 16.488 98.0794 17.72C98.0794 17.736 97.8794 17.744 97.4794 17.744C97.0954 17.744 96.6954 17.72 96.2794 17.672C95.3994 17.544 94.9594 17.432 94.9594 17.336C94.9594 16.696 95.5274 14.832 96.6634 11.744C96.4554 11.568 96.2154 11.208 95.9434 10.664C95.6714 10.104 95.5354 9.64 95.5354 9.272C95.5354 9.256 96.1994 9.224 97.5274 9.176C98.8394 5.368 99.5834 3.36 99.7594 3.152C99.8234 3.104 100.111 3.032 100.623 2.936C101.135 2.824 101.463 2.768 101.607 2.768L101.559 2.456C101.527 2.232 101.487 1.992 101.439 1.736C101.407 1.464 101.391 1.288 101.391 1.208C101.391 1.16 101.527 1.064 101.799 0.92C102.583 0.536 103.391 0.344 104.223 0.344C104.383 1.288 104.591 2.496 104.847 3.968C105.119 5.424 105.639 7.656 106.407 10.664C107.175 13.672 107.911 15.768 108.615 16.952L108.783 17.24C108.783 17.32 108.631 17.456 108.327 17.648C108.023 17.84 107.623 18.024 107.127 18.2C106.631 18.376 106.175 18.464 105.759 18.464C105.615 18.464 105.263 17.56 104.703 15.752C104.159 13.928 103.791 12.552 103.599 11.624ZM103.023 9.152C102.479 6.848 102.183 5.56 102.135 5.288C102.087 5.016 102.047 4.88 102.015 4.88C101.983 4.88 101.943 4.912 101.895 4.976C101.751 5.248 101.479 5.904 101.079 6.944C100.695 7.984 100.447 8.704 100.335 9.104C102.111 9.104 103.007 9.12 103.023 9.152ZM118.826 3.296C118.57 3.264 118.274 3.248 117.938 3.248C117.618 3.248 117.218 3.28 116.738 3.344C116.274 3.408 115.786 3.512 115.274 3.656C114.778 3.784 114.37 3.992 114.05 4.28C113.73 4.568 113.57 4.92 113.57 5.336C113.57 5.736 113.81 6.096 114.29 6.416C114.786 6.72 115.378 7.008 116.066 7.28C116.754 7.536 117.442 7.832 118.13 8.168C118.834 8.504 119.426 9 119.906 9.656C120.402 10.296 120.65 11.072 120.65 11.984C120.65 13.6 119.874 14.976 118.322 16.112C116.786 17.232 114.842 17.792 112.49 17.792C111.306 17.792 110.426 17.728 109.85 17.6C109.706 17.456 109.634 16.6 109.634 15.032C109.634 13.448 109.666 12.496 109.73 12.176C109.778 12.032 110.058 11.856 110.57 11.648C111.082 11.44 111.578 11.336 112.058 11.336C112.058 13.224 112.258 14.368 112.658 14.768C112.818 14.928 113.122 15.008 113.57 15.008C114.594 15.008 115.482 14.72 116.234 14.144C117.002 13.568 117.386 12.888 117.386 12.104C117.386 11.576 117.138 11.112 116.642 10.712C116.146 10.312 115.538 9.968 114.818 9.68C114.114 9.376 113.41 9.064 112.706 8.744C112.002 8.408 111.402 7.952 110.906 7.376C110.41 6.8 110.162 6.12 110.162 5.336C110.162 4.168 110.858 3.104 112.25 2.144C113.658 1.168 115.69 0.68 118.346 0.68C118.97 0.68 119.322 0.72 119.402 0.8C119.418 0.847999 119.426 0.967999 119.426 1.16C119.426 1.336 119.37 1.688 119.258 2.216C119.146 2.744 119.002 3.104 118.826 3.296ZM125.355 2.024L125.163 8.624C125.163 12.784 126.043 14.864 127.803 14.864C128.331 14.864 128.779 14.76 129.147 14.552C129.515 14.328 129.851 13.928 130.155 13.352C130.779 12.232 131.091 10.072 131.091 6.872C131.091 3.656 131.003 1.512 130.827 0.439999C131.003 0.359999 131.227 0.319999 131.499 0.319999C132.699 0.319999 133.499 0.527999 133.899 0.943999C134.043 1.664 134.115 3.944 134.115 7.784C134.115 11.704 133.467 14.392 132.171 15.848C131.531 16.568 130.835 17.072 130.083 17.36C129.347 17.648 128.491 17.792 127.515 17.792C125.611 17.792 124.227 17.072 123.363 15.632C122.499 14.176 122.067 11.672 122.067 8.12C122.067 6.776 122.083 5.728 122.115 4.976C122.163 4.224 122.179 3.84 122.163 3.824C122.067 3.648 121.947 3.344 121.803 2.912C121.675 2.48 121.611 2.168 121.611 1.976C121.611 1.912 121.763 1.816 122.067 1.688C122.851 1.384 123.579 1.232 124.251 1.232C124.923 1.232 125.275 1.248 125.307 1.28C125.339 1.312 125.355 1.56 125.355 2.024Z" fill="white"/>
</svg>
